<svg width="375" height="812" viewBox="0 0 375 812" fill="none" xmlns="http://www.w3.org/2000/svg" xmlns:xlink="http://www.w3.org/1999/xlink">
<rect width="375" height="812" fill="#E5E5E5"/>
<g filter="url(#filter0_ii_0_286)">
<rect x="-337" y="-458" width="1050" height="1603" fill="#E5E5E5"/>
</g>
<rect x="-332" y="-453" width="1040" height="1593" stroke="#F0F0F0" stroke-width="10"/>
<g clip-path="url(#clip0_0_286)">
<rect width="375" height="812" fill="white"/>
<rect width="375" height="2267" fill="white"/>
<rect x="16" y="661" width="167" height="220" fill="#eee"/>
<rect x="16" y="187" width="343" height="343" fill="#eee"/>
<text fill="black" xml:space="preserve" style="white-space: pre" font-family="Roboto" font-size="13" font-weight="bold" letter-spacing="0em"><tspan x="52" y="557.943">Ridhwan Nordin</tspan></text>
<text fill="black" fill-opacity="0.8" xml:space="preserve" style="white-space: pre" font-family="Roboto" font-size="11" letter-spacing="0em"><tspan x="52" y="571.26">@ridzjcob</tspan></text>
<circle cx="30" cy="560" r="14" fill="#eee"/>
<text fill="black" xml:space="preserve" style="white-space: pre" font-family="Roboto" font-size="13" font-weight="900" letter-spacing="0.04em"><tspan x="16" y="159.943">WHAT&#x2019;S NEW TODAY</tspan></text>
<text fill="black" xml:space="preserve" style="white-space: pre" font-family="Roboto" font-size="13" font-weight="900" letter-spacing="0.04em"><tspan x="16" y="633.943">BROWSE ALL</tspan></text>
<rect x="192" y="661" width="167" height="310" fill="#eee"/>
<text fill="black" xml:space="preserve" style="white-space: pre" font-family="Comfortaa" font-size="36" letter-spacing="-0.015em"><tspan x="16" y="107.646">Discover</tspan></text>
<g filter="url(#filter1_bd_0_286)">
<rect y="729" width="375" height="83" fill="white"/>
</g>
<path fill-rule="evenodd" clip-rule="evenodd" d="M23.7071 759.485L24.7782 758.414V764.056V764.056V765.056H36.7782V764.056V764.056V758.414L37.8492 759.485L38.5563 758.778L31.4853 751.707L30.7782 751L30.0711 751.707L23 758.778L23.7071 759.485ZM25.7782 764.056V757.414L30.7782 752.414L35.7782 757.414V764.056H32.7782V760.056V759.056H28.7782V760.056V764.056H25.7782ZM29.7782 760.056V764.056H31.7782V760.056H29.7782Z" fill="black" fill-opacity="0.8"/>
<path fill-rule="evenodd" clip-rule="evenodd" d="M106 756.5C106 759.538 103.538 762 100.5 762C97.4624 762 95 759.538 95 756.5C95 753.462 97.4624 751 100.5 751C103.538 751 106 753.462 106 756.5ZM104.729 761.436C103.592 762.411 102.115 763 100.5 763C96.9101 763 94 760.09 94 756.5C94 752.91 96.9101 750 100.5 750C104.09 750 107 752.91 107 756.5C107 758.115 106.411 759.592 105.436 760.729L109.854 765.146L109.146 765.854L104.729 761.436Z" fill="black" fill-opacity="0.8"/>
<g clip-path="url(#clip1_0_286)">
<rect x="153" y="738" width="70" height="40" rx="20" fill="url(#paint0_linear_0_286)"/>
<path fill-rule="evenodd" clip-rule="evenodd" d="M188.5 751.5H187.5V757.5H181.5V758.5H187.5V764.5H188.5V758.5H194.5V757.5H188.5V751.5Z" fill="white"/>
</g>
<path fill-rule="evenodd" clip-rule="evenodd" d="M267.927 761.527L267.69 761.034C267.248 760.117 267 759.089 267 758C267 754.134 270.134 751 274 751C277.866 751 281 754.134 281 758C281 761.866 277.866 765 274 765C272.895 765 271.853 764.745 270.926 764.291L270.658 764.16L270.362 764.197L265.944 764.749L267.64 761.992L267.927 761.527ZM264.672 764.908L264 766L265.272 765.841L270.487 765.189C271.547 765.708 272.74 766 274 766C278.418 766 282 762.418 282 758C282 753.582 278.418 750 274 750C269.582 750 266 753.582 266 758C266 759.243 266.283 760.419 266.789 761.468L264.672 764.908Z" fill="black" fill-opacity="0.8"/>
<path d="M344.217 758.478C341.336 758.478 339 760.814 339 763.696V765H349.435V763.696C349.435 760.814 347.099 758.478 344.217 758.478Z" stroke="black"/>
<ellipse cx="344.218" cy="753.913" rx="3.91307" ry="3.91304" stroke="black" stroke-linecap="square"/>
<rect x="120" y="799" width="135" height="5" rx="2.5" fill="black"/>
<rect opacity="0.35" x="336.5" y="17.8333" width="21" height="10.3333" rx="2.16667" stroke="black"/>
<path opacity="0.4" d="M359 21V25C359.808 24.6612 360.333 23.8731 360.333 23C360.333 22.1269 359.808 21.3388 359 21Z" fill="black"/>
<rect x="338" y="19.3333" width="18" height="7.33333" rx="1.33333" fill="black"/>
<path fill-rule="evenodd" clip-rule="evenodd" d="M323.333 19.5739C325.558 19.574 327.698 20.4117 329.31 21.9138C329.431 22.0298 329.625 22.0284 329.745 21.9106L330.906 20.7627C330.966 20.703 331 20.6221 330.999 20.5379C330.999 20.4537 330.964 20.3731 330.903 20.3141C326.671 16.3398 319.995 16.3398 315.763 20.3141C315.701 20.3731 315.667 20.4536 315.666 20.5378C315.665 20.622 315.699 20.7029 315.76 20.7627L316.921 21.9106C317.04 22.0285 317.234 22.03 317.356 21.9138C318.968 20.4116 321.108 19.5739 323.333 19.5739ZM323.331 23.2995C324.555 23.2994 325.735 23.756 326.642 24.5805C326.765 24.6976 326.958 24.695 327.078 24.5748L328.239 23.3977C328.3 23.3359 328.334 23.2522 328.333 23.1651C328.332 23.0781 328.296 22.995 328.234 22.9345C325.472 20.3552 321.194 20.3552 318.432 22.9345C318.369 22.995 318.334 23.0781 318.333 23.1652C318.332 23.2523 318.366 23.336 318.427 23.3977L319.587 24.5748C319.707 24.695 319.9 24.6976 320.023 24.5805C320.929 23.7565 322.109 23.3 323.331 23.2995ZM325.666 26.0231C325.668 26.1085 325.633 26.1909 325.571 26.2508L323.556 28.2419C323.497 28.3004 323.417 28.3333 323.333 28.3333C323.249 28.3333 323.168 28.3004 323.109 28.2419L321.094 26.2508C321.032 26.1908 320.998 26.1084 320.999 26.023C321.001 25.9375 321.039 25.8566 321.104 25.7993C322.391 24.7336 324.275 24.7336 325.562 25.7993C325.626 25.8567 325.664 25.9376 325.666 26.0231Z" fill="black"/>
<path fill-rule="evenodd" clip-rule="evenodd" d="M310.666 18.6667C310.666 18.1144 310.218 17.6667 309.666 17.6667H308.666C308.114 17.6667 307.666 18.1144 307.666 18.6667V27.3333C307.666 27.8856 308.114 28.3333 308.666 28.3333H309.666C310.218 28.3333 310.666 27.8856 310.666 27.3333V18.6667ZM303.999 20H304.999C305.552 20 305.999 20.4477 305.999 21V27.3333C305.999 27.8856 305.552 28.3333 304.999 28.3333H303.999C303.447 28.3333 302.999 27.8856 302.999 27.3333V21C302.999 20.4477 303.447 20 303.999 20ZM300.333 22.3333H299.333C298.78 22.3333 298.333 22.781 298.333 23.3333V27.3333C298.333 27.8856 298.78 28.3333 299.333 28.3333H300.333C300.885 28.3333 301.333 27.8856 301.333 27.3333V23.3333C301.333 22.781 300.885 22.3333 300.333 22.3333ZM296.666 25.3333C296.666 24.781 296.218 24.3333 295.666 24.3333H294.666C294.114 24.3333 293.666 24.781 293.666 25.3333V27.3333C293.666 27.8856 294.114 28.3333 294.666 28.3333H295.666C296.218 28.3333 296.666 27.8856 296.666 27.3333V25.3333Z" fill="black"/>
<text fill="black" xml:space="preserve" style="white-space: pre" font-family="SF Pro Text" font-size="15" letter-spacing="-0.333333px"><tspan x="32.2007" y="28.332">9:27</tspan></text>
</g>
<defs>
<filter id="filter0_ii_0_286" x="-337" y="-458" width="1050" height="1603" filterUnits="userSpaceOnUse" color-interpolation-filters="sRGB">
<feFlood flood-opacity="0" result="BackgroundImageFix"/>
<feBlend mode="normal" in="SourceGraphic" in2="BackgroundImageFix" result="shape"/>
<feColorMatrix in="SourceAlpha" type="matrix" values="0 0 0 0 0 0 0 0 0 0 0 0 0 0 0 0 0 0 127 0" result="hardAlpha"/>
<feOffset/>
<feGaussianBlur stdDeviation="15"/>
<feComposite in2="hardAlpha" operator="arithmetic" k2="-1" k3="1"/>
<feColorMatrix type="matrix" values="0 0 0 0 0 0 0 0 0 0 0 0 0 0 0 0 0 0 0.1 0"/>
<feBlend mode="normal" in2="shape" result="effect1_innerShadow_0_286"/>
<feColorMatrix in="SourceAlpha" type="matrix" values="0 0 0 0 0 0 0 0 0 0 0 0 0 0 0 0 0 0 127 0" result="hardAlpha"/>
<feOffset/>
<feGaussianBlur stdDeviation="7.5"/>
<feComposite in2="hardAlpha" operator="arithmetic" k2="-1" k3="1"/>
<feColorMatrix type="matrix" values="0 0 0 0 0 0 0 0 0 0 0 0 0 0 0 0 0 0 0.5 0"/>
<feBlend mode="normal" in2="effect1_innerShadow_0_286" result="effect2_innerShadow_0_286"/>
</filter>
<pattern id="pattern0" patternContentUnits="objectBoundingBox" width="1" height="1">
<use xlink:href="#image0_0_286" transform="matrix(0.00125 0 0 0.000948864 0 -0.0693182)"/>
</pattern>
<pattern id="pattern1" patternContentUnits="objectBoundingBox" width="1" height="1">
<use xlink:href="#image1_0_286" transform="translate(0 -0.181875) scale(0.00125)"/>
</pattern>
<pattern id="pattern2" patternContentUnits="objectBoundingBox" width="1" height="1">
<use xlink:href="#image2_0_286" transform="scale(0.00333333)"/>
</pattern>
<pattern id="pattern3" patternContentUnits="objectBoundingBox" width="1" height="1">
<use xlink:href="#image3_0_286" transform="matrix(0.00130541 0 0 0.000703235 -0.0221624 0)"/>
</pattern>
<filter id="filter1_bd_0_286" x="-27.1828" y="701.817" width="429.366" height="137.366" filterUnits="userSpaceOnUse" color-interpolation-filters="sRGB">
<feFlood flood-opacity="0" result="BackgroundImageFix"/>
<feGaussianBlur in="BackgroundImageFix" stdDeviation="13.5914"/>
<feComposite in2="SourceAlpha" operator="in" result="effect1_backgroundBlur_0_286"/>
<feColorMatrix in="SourceAlpha" type="matrix" values="0 0 0 0 0 0 0 0 0 0 0 0 0 0 0 0 0 0 127 0" result="hardAlpha"/>
<feOffset dy="-0.5"/>
<feColorMatrix type="matrix" values="0 0 0 0 0 0 0 0 0 0 0 0 0 0 0 0 0 0 0.3 0"/>
<feBlend mode="normal" in2="effect1_backgroundBlur_0_286" result="effect2_dropShadow_0_286"/>
<feBlend mode="normal" in="SourceGraphic" in2="effect2_dropShadow_0_286" result="shape"/>
</filter>
<linearGradient id="paint0_linear_0_286" x1="202.259" y1="738" x2="191.96" y2="782.241" gradientUnits="userSpaceOnUse">
<stop stop-color="#FF00D6"/>
<stop offset="1" stop-color="#FF4D00"/>
</linearGradient>
<clipPath id="clip0_0_286">
<rect width="375" height="812" fill="white"/>
</clipPath>
<clipPath id="clip1_0_286">
<rect width="70" height="40" fill="white" transform="translate(153 738)"/>
</clipPath>
</defs>
</svg>
