<svg width="375" height="812" viewBox="0 0 375 812" fill="none" xmlns="http://www.w3.org/2000/svg" xmlns:xlink="http://www.w3.org/1999/xlink">
<rect width="375" height="812" fill="#E5E5E5"/>
<g filter="url(#filter0_ii_0_286)">
<rect x="-575" y="-691" width="1050" height="1603" fill="#E5E5E5"/>
</g>
<rect x="-570" y="-686" width="1040" height="1593" stroke="#F0F0F0" stroke-width="10"/>
<g clip-path="url(#clip0_0_286)">
<rect width="375" height="812" fill="white"/>
<rect width="375" height="812" fill="white"/>
<g filter="url(#filter1_bd_0_286)">
<rect width="375" height="88" fill="white"/>
</g>
<text fill="black" xml:space="preserve" style="white-space: pre" font-family="SF Pro Text" font-size="17" letter-spacing="-0.408px"><tspan x="163.428" y="72.043">Chats</tspan></text>
<rect y="184" width="375" height="0.5" fill="black" fill-opacity="0.3"/>
<rect y="280.5" width="375" height="0.5" fill="black" fill-opacity="0.3"/>
<rect y="377" width="375" height="0.5" fill="black" fill-opacity="0.3"/>
<rect y="473.5" width="375" height="0.5" fill="black" fill-opacity="0.3"/>
<circle cx="48" cy="136" r="32" fill="#eee"/>
<text fill="black" xml:space="preserve" style="white-space: pre" font-family="Roboto" font-size="13" letter-spacing="0em"><tspan x="96" y="141.443">Thank you! That was very helpful!</tspan></text>
<text fill="black" xml:space="preserve" style="white-space: pre" font-family="Roboto" font-size="13" font-weight="bold" letter-spacing="0em"><tspan x="96" y="117.443">James</tspan></text>
<text fill="black" xml:space="preserve" style="white-space: pre" font-family="Roboto" font-size="13" letter-spacing="0em"><tspan x="96" y="237.943">I know... I&#x2019;m trying to get the funds.</tspan></text>
<text fill="black" xml:space="preserve" style="white-space: pre" font-family="Roboto" font-size="13" font-weight="bold" letter-spacing="0em"><tspan x="96" y="213.943">Will Kenny</tspan></text>
<text fill="black" xml:space="preserve" style="white-space: pre" font-family="Roboto" font-size="13" letter-spacing="0em"><tspan x="96" y="334.443">I&#x2019;m looking for tips around capturing the </tspan><tspan x="96" y="352.443">milky way. I have a 6D with a 24-100mm...</tspan></text>
<text fill="black" xml:space="preserve" style="white-space: pre" font-family="Roboto" font-size="13" font-weight="bold" letter-spacing="0em"><tspan x="96" y="310.443">Beth Williams</tspan></text>
<text fill="black" xml:space="preserve" style="white-space: pre" font-family="Roboto" font-size="13" letter-spacing="0em"><tspan x="96" y="430.943">Wanted to ask if you&#x2019;re available for a portrait </tspan><tspan x="96" y="448.943">shoot next week.</tspan></text>
<text fill="black" xml:space="preserve" style="white-space: pre" font-family="Roboto" font-size="13" font-weight="bold" letter-spacing="0em"><tspan x="96" y="406.943">Rev Shawn</tspan></text>
<circle cx="48" cy="232.5" r="32" fill="#eee"/>
<circle cx="48" cy="329" r="32" fill="#eee"/>
<circle cx="48" cy="425.5" r="32" fill="#eee"/>
<rect opacity="0.35" x="336.5" y="17.8333" width="21" height="10.3333" rx="2.16667" stroke="black"/>
<path opacity="0.4" d="M359 21V25C359.808 24.6612 360.333 23.8731 360.333 23C360.333 22.1269 359.808 21.3388 359 21Z" fill="black"/>
<rect x="338" y="19.3333" width="18" height="7.33333" rx="1.33333" fill="black"/>
<path fill-rule="evenodd" clip-rule="evenodd" d="M323.334 19.5739C325.558 19.574 327.698 20.4117 329.31 21.9138C329.432 22.0298 329.626 22.0283 329.745 21.9105L330.906 20.7627C330.967 20.703 331 20.622 331 20.5378C330.999 20.4536 330.965 20.3731 330.903 20.3141C326.671 16.3397 319.995 16.3397 315.763 20.3141C315.702 20.3731 315.667 20.4536 315.667 20.5378C315.666 20.622 315.7 20.7029 315.76 20.7627L316.921 21.9105C317.041 22.0285 317.235 22.03 317.356 21.9138C318.969 20.4116 321.109 19.5739 323.334 19.5739ZM323.332 23.2994C324.556 23.2994 325.736 23.756 326.643 24.5805C326.766 24.6975 326.959 24.695 327.078 24.5748L328.239 23.3976C328.3 23.3359 328.334 23.2521 328.333 23.1651C328.332 23.0781 328.297 22.995 328.234 22.9345C325.472 20.3551 321.194 20.3551 318.432 22.9345C318.37 22.995 318.334 23.0781 318.333 23.1652C318.332 23.2522 318.366 23.336 318.428 23.3976L319.588 24.5748C319.707 24.695 319.901 24.6975 320.023 24.5805C320.93 23.7565 322.109 23.2999 323.332 23.2994ZM325.666 26.023C325.668 26.1085 325.634 26.1909 325.572 26.2507L323.557 28.2419C323.498 28.3004 323.417 28.3333 323.333 28.3333C323.249 28.3333 323.169 28.3004 323.11 28.2419L321.095 26.2507C321.032 26.1908 320.998 26.1084 321 26.023C321.002 25.9375 321.04 25.8566 321.104 25.7993C322.391 24.7335 324.276 24.7335 325.562 25.7993C325.627 25.8566 325.665 25.9376 325.666 26.023Z" fill="black"/>
<path fill-rule="evenodd" clip-rule="evenodd" d="M310.667 18.6667C310.667 18.1144 310.219 17.6667 309.667 17.6667H308.667C308.114 17.6667 307.667 18.1144 307.667 18.6667V27.3334C307.667 27.8856 308.114 28.3334 308.667 28.3334H309.667C310.219 28.3334 310.667 27.8856 310.667 27.3334V18.6667ZM304 20H305C305.552 20 306 20.4477 306 21V27.3334C306 27.8856 305.552 28.3334 305 28.3334H304C303.448 28.3334 303 27.8856 303 27.3334V21C303 20.4477 303.448 20 304 20ZM300.333 22.3334H299.333C298.781 22.3334 298.333 22.7811 298.333 23.3334V27.3334C298.333 27.8856 298.781 28.3334 299.333 28.3334H300.333C300.885 28.3334 301.333 27.8856 301.333 27.3334V23.3334C301.333 22.7811 300.885 22.3334 300.333 22.3334ZM296.667 25.3334C296.667 24.7811 296.219 24.3334 295.667 24.3334H294.667C294.114 24.3334 293.667 24.7811 293.667 25.3334V27.3334C293.667 27.8856 294.114 28.3334 294.667 28.3334H295.667C296.219 28.3334 296.667 27.8856 296.667 27.3334V25.3334Z" fill="black"/>
<text fill="black" xml:space="preserve" style="white-space: pre" font-family="SF Pro Text" font-size="15" letter-spacing="-0.333333px"><tspan x="32.2002" y="28.332">9:27</tspan></text>
</g>
<defs>
<filter id="filter0_ii_0_286" x="-575" y="-691" width="1050" height="1603" filterUnits="userSpaceOnUse" color-interpolation-filters="sRGB">
<feFlood flood-opacity="0" result="BackgroundImageFix"/>
<feBlend mode="normal" in="SourceGraphic" in2="BackgroundImageFix" result="shape"/>
<feColorMatrix in="SourceAlpha" type="matrix" values="0 0 0 0 0 0 0 0 0 0 0 0 0 0 0 0 0 0 127 0" result="hardAlpha"/>
<feOffset/>
<feGaussianBlur stdDeviation="15"/>
<feComposite in2="hardAlpha" operator="arithmetic" k2="-1" k3="1"/>
<feColorMatrix type="matrix" values="0 0 0 0 0 0 0 0 0 0 0 0 0 0 0 0 0 0 0.1 0"/>
<feBlend mode="normal" in2="shape" result="effect1_innerShadow_0_286"/>
<feColorMatrix in="SourceAlpha" type="matrix" values="0 0 0 0 0 0 0 0 0 0 0 0 0 0 0 0 0 0 127 0" result="hardAlpha"/>
<feOffset/>
<feGaussianBlur stdDeviation="7.5"/>
<feComposite in2="hardAlpha" operator="arithmetic" k2="-1" k3="1"/>
<feColorMatrix type="matrix" values="0 0 0 0 0 0 0 0 0 0 0 0 0 0 0 0 0 0 0.5 0"/>
<feBlend mode="normal" in2="effect1_innerShadow_0_286" result="effect2_innerShadow_0_286"/>
</filter>
<filter id="filter1_bd_0_286" x="-27.1828" y="-27.1828" width="429.366" height="142.366" filterUnits="userSpaceOnUse" color-interpolation-filters="sRGB">
<feFlood flood-opacity="0" result="BackgroundImageFix"/>
<feGaussianBlur in="BackgroundImageFix" stdDeviation="13.5914"/>
<feComposite in2="SourceAlpha" operator="in" result="effect1_backgroundBlur_0_286"/>
<feColorMatrix in="SourceAlpha" type="matrix" values="0 0 0 0 0 0 0 0 0 0 0 0 0 0 0 0 0 0 127 0" result="hardAlpha"/>
<feOffset dy="0.5"/>
<feColorMatrix type="matrix" values="0 0 0 0 0 0 0 0 0 0 0 0 0 0 0 0 0 0 0.3 0"/>
<feBlend mode="normal" in2="effect1_backgroundBlur_0_286" result="effect2_dropShadow_0_286"/>
<feBlend mode="normal" in="SourceGraphic" in2="effect2_dropShadow_0_286" result="shape"/>
</filter>
<pattern id="pattern0" patternContentUnits="objectBoundingBox" width="1" height="1">
<use xlink:href="#image0_0_286" transform="translate(0 -0.124375) scale(0.00125)"/>
</pattern>
<pattern id="pattern1" patternContentUnits="objectBoundingBox" width="1" height="1">
<use xlink:href="#image1_0_286" transform="translate(0 -0.209375) scale(0.00125)"/>
</pattern>
<pattern id="pattern2" patternContentUnits="objectBoundingBox" width="1" height="1">
<use xlink:href="#image2_0_286" transform="translate(0 -0.25) scale(0.00125)"/>
</pattern>
<pattern id="pattern3" patternContentUnits="objectBoundingBox" width="1" height="1">
<use xlink:href="#image3_0_286" transform="translate(0 -0.25) scale(0.00125)"/>
</pattern>
<clipPath id="clip0_0_286">
<rect width="375" height="812" fill="white"/>
</clipPath>
</defs>
</svg>
