<svg width="375" height="812" viewBox="0 0 375 812" fill="none" xmlns="http://www.w3.org/2000/svg" xmlns:xlink="http://www.w3.org/1999/xlink">
<rect width="375" height="812" fill="#E5E5E5"/>
<g filter="url(#filter0_ii_0_286)">
<rect x="-336" y="-516" width="1050" height="1603" fill="#E5E5E5"/>
</g>
<rect x="-331" y="-511" width="1040" height="1593" stroke="#F0F0F0" stroke-width="10"/>
<g clip-path="url(#clip0_0_286)">
<rect width="375" height="812" fill="white"/>
<rect width="375" height="812" fill="white"/>
<g filter="url(#filter1_bd_0_286)">
<rect width="375" height="88" fill="white"/>
</g>
<text fill="black" xml:space="preserve" style="white-space: pre" font-family="SF Pro Text" font-size="17" letter-spacing="-0.408px"><tspan x="161.148" y="72.043">James</tspan></text>
<path fill-rule="evenodd" clip-rule="evenodd" d="M9.29215 67.2128C8.90262 66.8188 8.90262 66.1822 9.29215 65.7872L18.5371 56.4275C19.0995 55.8575 20.0144 55.8575 20.5777 56.4275C21.14 56.9975 21.14 57.9227 20.5777 58.4927L12.6691 66.5005L20.5777 74.5063C21.14 75.0774 21.14 76.0025 20.5777 76.5725C20.0144 77.1425 19.0995 77.1425 18.5371 76.5725L9.29215 67.2128Z" fill="black"/>
<circle cx="30" cy="136" r="14" fill="#eee"/>
<circle cx="345" cy="242" r="14" fill="#eee"/>
<path d="M60 120H353C356.314 120 359 122.686 359 126V198C359 201.314 356.314 204 353 204H66C62.6863 204 60 201.314 60 198V120Z" fill="black" fill-opacity="0.03"/>
<text fill="black" xml:space="preserve" style="white-space: pre" font-family="Roboto" font-size="13" letter-spacing="0em"><tspan x="76" y="149.443">Really love your most recent photo. I&#x2019;ve been </tspan><tspan x="76" y="167.443">trying to capture the same thing for a few </tspan><tspan x="76" y="185.443">months and would love some tips!</tspan></text>
<circle cx="30" cy="352" r="14" fill="#eee"/>
<path d="M60 336H353C356.314 336 359 338.686 359 342V380C359 383.314 356.314 386 353 386H66C62.6863 386 60 383.314 60 380V336Z" fill="black" fill-opacity="0.03"/>
<text fill="#D82E57" xml:space="preserve" style="white-space: pre" font-family="Roboto" font-size="13" font-style="italic" font-weight="500" letter-spacing="0em"><tspan x="76" y="365.443">Thank you! That was very helpful!</tspan></text>
<path d="M16 234C16 230.686 18.6863 228 22 228H315V306C315 309.314 312.314 312 309 312H22C18.6863 312 16 309.314 16 306V234Z" fill="black" fill-opacity="0.03"/>
<text fill="#8E1DE8" xml:space="preserve" style="white-space: pre" font-family="Roboto" font-size="13" font-weight="500" letter-spacing="0em"><tspan x="32" y="257.443">A fast 50mm like f1.8 would help with the </tspan><tspan x="32" y="275.443">bokeh. I&#x2019;ve been using primes as they tend to </tspan><tspan x="32" y="293.443">get a bit sharper images.</tspan></text>
<g filter="url(#filter2_bd_0_286)">
<rect y="729" width="375" height="83" fill="white"/>
</g>
<path fill-rule="evenodd" clip-rule="evenodd" d="M23.7071 759.485L24.7782 758.414V764.056V764.056V765.056H36.7782V764.056V764.056V758.414L37.8492 759.485L38.5563 758.778L31.4853 751.707L30.7782 751L30.0711 751.707L23 758.778L23.7071 759.485ZM25.7782 764.056V757.414L30.7782 752.414L35.7782 757.414V764.056H32.7782V760.056V759.056H28.7782V760.056V764.056H25.7782ZM29.7782 760.056V764.056H31.7782V760.056H29.7782Z" fill="black" fill-opacity="0.8"/>
<path fill-rule="evenodd" clip-rule="evenodd" d="M106 756.5C106 759.538 103.538 762 100.5 762C97.4624 762 95 759.538 95 756.5C95 753.462 97.4624 751 100.5 751C103.538 751 106 753.462 106 756.5ZM104.729 761.436C103.592 762.411 102.115 763 100.5 763C96.9101 763 94 760.09 94 756.5C94 752.91 96.9101 750 100.5 750C104.09 750 107 752.91 107 756.5C107 758.115 106.411 759.592 105.436 760.729L109.854 765.146L109.146 765.854L104.729 761.436Z" fill="black" fill-opacity="0.8"/>
<g clip-path="url(#clip1_0_286)">
<rect x="153" y="738" width="70" height="40" rx="20" fill="url(#paint0_linear_0_286)"/>
<path fill-rule="evenodd" clip-rule="evenodd" d="M188.5 751.5H187.5V757.5H181.5V758.5H187.5V764.5H188.5V758.5H194.5V757.5H188.5V751.5Z" fill="white"/>
</g>
<path fill-rule="evenodd" clip-rule="evenodd" d="M267.927 761.527L267.69 761.034C267.248 760.117 267 759.089 267 758C267 754.134 270.134 751 274 751C277.866 751 281 754.134 281 758C281 761.866 277.866 765 274 765C272.895 765 271.853 764.745 270.926 764.291L270.658 764.16L270.362 764.197L265.944 764.749L267.64 761.992L267.927 761.527ZM264.672 764.908L264 766L265.272 765.841L270.487 765.189C271.547 765.708 272.74 766 274 766C278.418 766 282 762.418 282 758C282 753.582 278.418 750 274 750C269.582 750 266 753.582 266 758C266 759.243 266.283 760.419 266.789 761.468L264.672 764.908Z" fill="black" fill-opacity="0.8"/>
<path d="M344.217 758.478C341.336 758.478 339 760.814 339 763.696V765H349.435V763.696C349.435 760.814 347.099 758.478 344.217 758.478Z" stroke="black"/>
<ellipse cx="344.218" cy="753.913" rx="3.91307" ry="3.91304" stroke="black" stroke-linecap="square"/>
<rect x="120" y="799" width="135" height="5" rx="2.5" fill="black"/>
<rect opacity="0.35" x="336.5" y="17.8333" width="21" height="10.3333" rx="2.16667" stroke="black"/>
<path opacity="0.4" d="M359 21V25C359.808 24.6612 360.333 23.8731 360.333 23C360.333 22.1269 359.808 21.3388 359 21Z" fill="black"/>
<rect x="338" y="19.3333" width="18" height="7.33333" rx="1.33333" fill="black"/>
<path fill-rule="evenodd" clip-rule="evenodd" d="M323.334 19.5739C325.559 19.574 327.698 20.4117 329.311 21.9138C329.432 22.0298 329.626 22.0283 329.746 21.9105L330.907 20.7627C330.967 20.703 331.001 20.622 331 20.5378C331 20.4536 330.965 20.3731 330.904 20.3141C326.672 16.3397 319.996 16.3397 315.764 20.3141C315.702 20.3731 315.668 20.4536 315.667 20.5378C315.666 20.622 315.7 20.7029 315.761 20.7627L316.922 21.9105C317.041 22.0285 317.235 22.03 317.357 21.9138C318.969 20.4116 321.109 19.5739 323.334 19.5739ZM323.332 23.2994C324.556 23.2994 325.736 23.756 326.643 24.5805C326.766 24.6975 326.959 24.695 327.079 24.5748L328.239 23.3976C328.301 23.3359 328.335 23.2521 328.334 23.1651C328.333 23.0781 328.297 22.995 328.235 22.9345C325.473 20.3551 321.195 20.3551 318.432 22.9345C318.37 22.995 318.334 23.0781 318.334 23.1652C318.333 23.2522 318.367 23.336 318.428 23.3976L319.588 24.5748C319.708 24.695 319.901 24.6975 320.024 24.5805C320.93 23.7565 322.11 23.2999 323.332 23.2994ZM325.667 26.023C325.669 26.1085 325.634 26.1909 325.572 26.2507L323.557 28.2419C323.498 28.3004 323.418 28.3333 323.334 28.3333C323.25 28.3333 323.169 28.3004 323.11 28.2419L321.095 26.2507C321.033 26.1908 320.999 26.1084 321 26.023C321.002 25.9375 321.04 25.8566 321.105 25.7993C322.391 24.7335 324.276 24.7335 325.563 25.7993C325.627 25.8566 325.665 25.9376 325.667 26.023Z" fill="black"/>
<path fill-rule="evenodd" clip-rule="evenodd" d="M310.667 18.6667C310.667 18.1144 310.219 17.6667 309.667 17.6667H308.667C308.115 17.6667 307.667 18.1144 307.667 18.6667V27.3334C307.667 27.8856 308.115 28.3334 308.667 28.3334H309.667C310.219 28.3334 310.667 27.8856 310.667 27.3334V18.6667ZM304 20H305C305.553 20 306 20.4477 306 21V27.3334C306 27.8856 305.553 28.3334 305 28.3334H304C303.448 28.3334 303 27.8856 303 27.3334V21C303 20.4477 303.448 20 304 20ZM300.334 22.3334H299.334C298.781 22.3334 298.334 22.7811 298.334 23.3334V27.3334C298.334 27.8856 298.781 28.3334 299.334 28.3334H300.334C300.886 28.3334 301.334 27.8856 301.334 27.3334V23.3334C301.334 22.7811 300.886 22.3334 300.334 22.3334ZM296.667 25.3334C296.667 24.7811 296.219 24.3334 295.667 24.3334H294.667C294.115 24.3334 293.667 24.7811 293.667 25.3334V27.3334C293.667 27.8856 294.115 28.3334 294.667 28.3334H295.667C296.219 28.3334 296.667 27.8856 296.667 27.3334V25.3334Z" fill="black"/>
<text fill="black" xml:space="preserve" style="white-space: pre" font-family="SF Pro Text" font-size="15" letter-spacing="-0.333333px"><tspan x="32.1997" y="28.332">9:27</tspan></text>
</g>
<defs>
<filter id="filter0_ii_0_286" x="-336" y="-516" width="1050" height="1603" filterUnits="userSpaceOnUse" color-interpolation-filters="sRGB">
<feFlood flood-opacity="0" result="BackgroundImageFix"/>
<feBlend mode="normal" in="SourceGraphic" in2="BackgroundImageFix" result="shape"/>
<feColorMatrix in="SourceAlpha" type="matrix" values="0 0 0 0 0 0 0 0 0 0 0 0 0 0 0 0 0 0 127 0" result="hardAlpha"/>
<feOffset/>
<feGaussianBlur stdDeviation="15"/>
<feComposite in2="hardAlpha" operator="arithmetic" k2="-1" k3="1"/>
<feColorMatrix type="matrix" values="0 0 0 0 0 0 0 0 0 0 0 0 0 0 0 0 0 0 0.1 0"/>
<feBlend mode="normal" in2="shape" result="effect1_innerShadow_0_286"/>
<feColorMatrix in="SourceAlpha" type="matrix" values="0 0 0 0 0 0 0 0 0 0 0 0 0 0 0 0 0 0 127 0" result="hardAlpha"/>
<feOffset/>
<feGaussianBlur stdDeviation="7.5"/>
<feComposite in2="hardAlpha" operator="arithmetic" k2="-1" k3="1"/>
<feColorMatrix type="matrix" values="0 0 0 0 0 0 0 0 0 0 0 0 0 0 0 0 0 0 0.5 0"/>
<feBlend mode="normal" in2="effect1_innerShadow_0_286" result="effect2_innerShadow_0_286"/>
</filter>
<filter id="filter1_bd_0_286" x="-27.1828" y="-27.1828" width="429.366" height="142.366" filterUnits="userSpaceOnUse" color-interpolation-filters="sRGB">
<feFlood flood-opacity="0" result="BackgroundImageFix"/>
<feGaussianBlur in="BackgroundImageFix" stdDeviation="13.5914"/>
<feComposite in2="SourceAlpha" operator="in" result="effect1_backgroundBlur_0_286"/>
<feColorMatrix in="SourceAlpha" type="matrix" values="0 0 0 0 0 0 0 0 0 0 0 0 0 0 0 0 0 0 127 0" result="hardAlpha"/>
<feOffset dy="0.5"/>
<feColorMatrix type="matrix" values="0 0 0 0 0 0 0 0 0 0 0 0 0 0 0 0 0 0 0.3 0"/>
<feBlend mode="normal" in2="effect1_backgroundBlur_0_286" result="effect2_dropShadow_0_286"/>
<feBlend mode="normal" in="SourceGraphic" in2="effect2_dropShadow_0_286" result="shape"/>
</filter>
<pattern id="pattern0" patternContentUnits="objectBoundingBox" width="1" height="1">
<use xlink:href="#image0_0_286" transform="translate(0 -0.124375) scale(0.00125)"/>
</pattern>
<pattern id="pattern1" patternContentUnits="objectBoundingBox" width="1" height="1">
<use xlink:href="#image1_0_286" transform="translate(-0.250469) scale(0.00187617)"/>
</pattern>
<pattern id="pattern2" patternContentUnits="objectBoundingBox" width="1" height="1">
<use xlink:href="#image0_0_286" transform="translate(0 -0.124375) scale(0.00125)"/>
</pattern>
<filter id="filter2_bd_0_286" x="-27.1828" y="701.817" width="429.366" height="137.366" filterUnits="userSpaceOnUse" color-interpolation-filters="sRGB">
<feFlood flood-opacity="0" result="BackgroundImageFix"/>
<feGaussianBlur in="BackgroundImageFix" stdDeviation="13.5914"/>
<feComposite in2="SourceAlpha" operator="in" result="effect1_backgroundBlur_0_286"/>
<feColorMatrix in="SourceAlpha" type="matrix" values="0 0 0 0 0 0 0 0 0 0 0 0 0 0 0 0 0 0 127 0" result="hardAlpha"/>
<feOffset dy="-0.5"/>
<feColorMatrix type="matrix" values="0 0 0 0 0 0 0 0 0 0 0 0 0 0 0 0 0 0 0.3 0"/>
<feBlend mode="normal" in2="effect1_backgroundBlur_0_286" result="effect2_dropShadow_0_286"/>
<feBlend mode="normal" in="SourceGraphic" in2="effect2_dropShadow_0_286" result="shape"/>
</filter>
<linearGradient id="paint0_linear_0_286" x1="202.259" y1="738" x2="191.96" y2="782.241" gradientUnits="userSpaceOnUse">
<stop stop-color="#FF00D6"/>
<stop offset="1" stop-color="#FF4D00"/>
</linearGradient>
<clipPath id="clip0_0_286">
<rect width="375" height="812" fill="white"/>
</clipPath>
<clipPath id="clip1_0_286">
<rect width="70" height="40" fill="white" transform="translate(153 738)"/>
</clipPath>
</defs>
</svg>
